<?xml version="1.0" standalone="no"?><!DOCTYPE svg PUBLIC "-//W3C//DTD SVG 1.1//EN" "http://www.w3.org/Graphics/SVG/1.1/DTD/svg11.dtd"><svg t="1621774391510" class="icon" viewBox="0 0 1024 1024" version="1.1" xmlns="http://www.w3.org/2000/svg" p-id="23751" xmlns:xlink="http://www.w3.org/1999/xlink" width="200" height="200"><defs><style type="text/css"></style></defs><path d="M704.526 61.542c-54.54 73.294-108.324 182.752-146.626 290.164V20.756C557.9 9.292 548.608 0 537.146 0h-50.29c-11.462 0-20.756 9.292-20.756 20.756v330.95c-38.302-107.412-92.086-216.868-146.626-290.164-7.5-10.078-21.858-11.906-31.584-3.956l-37.092 30.32c-9.05 7.398-10.752 20.592-3.808 29.996 89.36 120.986 182.41 365.558 182.41 485.106h165.202c0-119.548 93.05-364.12 182.41-485.106 6.944-9.402 5.244-22.598-3.808-29.996l-37.092-30.32c-9.726-7.95-24.086-6.122-31.586 3.956z" fill="#54B88B" p-id="23752"></path><path d="M512 414.444c-43.244 0-81.646 4.562-117.164 13.154 21.306 67.366 34.564 130.292 34.564 175.408h165.202c0-45.116 13.258-108.042 34.564-175.408-35.52-8.592-73.922-13.154-117.166-13.154z" fill="#B5E489" p-id="23753"></path><path d="M334.66 272.334c53.72 116.832 94.74 251.304 94.74 330.672h165.202c0-31.404 6.428-71.44 17.516-115.592-134.86 16.464-224.29-114.868-277.458-215.08z" opacity=".1" p-id="23754"></path><path d="M798.088 764.592c0-137.838-128.086-249.58-286.088-249.58s-286.088 111.74-286.088 249.58S353.998 1024 512 1024s286.088-121.57 286.088-259.408z" fill="#FFDAB5" p-id="23755"></path><path d="M397.084 782.246a15 15 0 0 1-15-15v-19.076c0-8.286 6.716-15 15-15s15 6.714 15 15v19.076c0 8.286-6.714 15-15 15zM626.914 782.246a15 15 0 0 1-15-15v-19.076c0-8.286 6.716-15 15-15s15 6.714 15 15v19.076c0 8.286-6.714 15-15 15zM512 796.894a55.18 55.18 0 0 1-41.604-18.948 15 15 0 1 1 22.616-19.71 25.194 25.194 0 0 0 18.99 8.658c7.274 0 14.194-3.156 18.99-8.658a15 15 0 1 1 22.616 19.71A55.194 55.194 0 0 1 512 796.894z" fill="#414B58" p-id="23756"></path><path d="M446.538 941.612c-180.772-151.982-74.934-351.27 39.25-425.546-145.714 11.55-259.876 118.398-259.876 248.526C225.912 902.43 353.998 1024 512 1024c5.494 0 10.948-0.162 16.364-0.452-13.97-19.662-39.228-46.124-81.826-81.936z" opacity=".1" p-id="23757"></path><path d="M331.874 710.776a14.998 14.998 0 0 1-13.844-20.764c15.526-37.336 50.178-90.408 96.732-117.1a15 15 0 1 1 14.922 26.026c-40.018 22.942-70.236 69.604-83.954 102.592a15.01 15.01 0 0 1-13.856 9.246zM706.864 723.594a15.002 15.002 0 0 1-14.89-13.346c-2.07-18.628-16.876-53.382-39.292-70.194a15 15 0 0 1 18-24c29.058 21.792 48.02 63.088 51.108 90.88a15 15 0 0 1-14.926 16.66zM579.384 972.214a15 15 0 0 1-10.74-25.47c13.39-13.734 23.368-33.618 28.852-57.496a14.996 14.996 0 0 1 17.978-11.262 14.996 14.996 0 0 1 11.26 17.976c-6.716 29.246-19.378 54.046-36.61 71.722a14.936 14.936 0 0 1-10.74 4.53zM435.12 946.592a14.976 14.976 0 0 1-12.262-6.346c-10.19-14.418-17.216-44.156-18.092-50.454a15 15 0 1 1 29.714-4.132c0.958 6.878 7.446 29.586 12.88 37.276a15 15 0 0 1-12.24 23.656zM535.884 696.206a15 15 0 0 1-15-15v-35.308c0-8.286 6.716-15 15-15s15 6.714 15 15v35.308c0 8.286-6.714 15-15 15z" opacity=".1" p-id="23758"></path></svg>