<?xml version="1.0" standalone="no"?><!DOCTYPE svg PUBLIC "-//W3C//DTD SVG 1.1//EN" "http://www.w3.org/Graphics/SVG/1.1/DTD/svg11.dtd"><svg t="1621994171790" class="icon" viewBox="0 0 1024 1024" version="1.1" xmlns="http://www.w3.org/2000/svg" p-id="7346" xmlns:xlink="http://www.w3.org/1999/xlink" width="200" height="200"><defs><style type="text/css"></style></defs><path d="M512 1024a512 512 0 1 1 512-512 512.589862 512.589862 0 0 1-512 512z m0-935.520737a423.520737 423.520737 0 1 0 423.520737 423.520737A423.815668 423.815668 0 0 0 512 88.479263z" fill="#060404" p-id="7347"></path><path d="M474.248848 783.631336a43.64977 43.64977 0 0 1-31.852535-12.976958l-226.801843-227.391705a44.534562 44.534562 0 0 1 0-62.525346L442.396313 253.345622a44.239631 44.239631 0 0 1 62.525346 62.525346l-196.129032 196.129032L505.511521 707.834101a43.9447 43.9447 0 0 1 0 62.525346 42.764977 42.764977 0 0 1-31.262673 13.271889z" fill="#060404" p-id="7348"></path><path d="M694.857143 556.239631h-271.041475a44.239631 44.239631 0 1 1 0-88.479262h271.041475a44.239631 44.239631 0 1 1 0 88.479262z" fill="#2DAF62" p-id="7349"></path></svg>