<?xml version="1.0" standalone="no"?><!DOCTYPE svg PUBLIC "-//W3C//DTD SVG 1.1//EN" "http://www.w3.org/Graphics/SVG/1.1/DTD/svg11.dtd"><svg t="1621774676693" class="icon" viewBox="0 0 1024 1024" version="1.1" xmlns="http://www.w3.org/2000/svg" p-id="22248" xmlns:xlink="http://www.w3.org/1999/xlink" width="200" height="200"><defs><style type="text/css"></style></defs><path d="M673.472 484.946h-322.94l-50.968 418.164c-3.986 32.712 21.542 61.542 54.496 61.542h315.884c32.954 0 58.482-28.83 54.496-61.542l-50.968-418.164z" fill="#FFDAB5" p-id="22249"></path><path d="M673.472 484.944h-322.94l-50.968 418.164c-3.986 32.712 21.542 61.54 54.496 61.54h147.012c-75.258-41.956-79.64-174.216-65.804-299.532 0.858-7.776 7.362-13.734 15.186-13.822 8.796-0.1 17.628 1.992 25.648 6.32l10.792 5.824a52.86 52.86 0 0 0 50.21 0l11.822-6.38c16.674-8.998 36.7-7.59 52.666 2.612a52.858 52.858 0 0 0 54.876 1.244l22.078-12.738a31.128 31.128 0 0 1 14.316-4.126l-19.39-159.106z" opacity=".1" p-id="22250"></path><path d="M677.81 448.322l53.088 111.762c10.636 22.394-7.904 47.628-32.454 44.168a31.114 31.114 0 0 0-19.894 3.86l-22.078 12.738a52.86 52.86 0 0 1-54.94-1.284 52.86 52.86 0 0 0-53.63-2.016l-10.792 5.824a52.86 52.86 0 0 1-50.21 0l-10.792-5.824a52.86 52.86 0 0 0-53.63 2.016 52.86 52.86 0 0 1-54.94 1.284l-22.078-12.738a31.116 31.116 0 0 0-19.894-3.86c-24.55 3.46-43.09-21.774-32.454-44.168l53.088-111.762h331.61z" fill="#FFB655" p-id="22251"></path><path d="M972.572 493.754c38.382-8.368 60.546-48.356 47.83-85.526-73.396-214.556-244.49-348.878-508.4-348.878S76.998 193.672 3.6 408.228c-12.716 37.17 9.448 77.158 47.83 85.526a2162.376 2162.376 0 0 0 921.142 0z" fill="#F985AC" p-id="22252"></path><path d="M696.574 84.944c-15.73 22.932-24.95 50.678-24.95 80.588 0 78.79 63.872 142.662 142.66 142.662 49.576 0 93.232-25.3 118.8-63.682-58.932-74.856-137.924-129.756-236.51-159.568zM290.04 361.086c-83.744 0-152.002 66.18-155.402 149.09a2162.14 2162.14 0 0 0 308.836 32.066 156.384 156.384 0 0 0 2.132-25.59c0-85.918-69.648-155.566-155.566-155.566z" fill="#EAEAEA" p-id="22253"></path><path d="M623.062 395.32m-69.198 0a69.198 69.198 0 1 0 138.396 0 69.198 69.198 0 1 0-138.396 0Z" fill="#F7F7F7" p-id="22254"></path><path d="M378.23 72.18c-65.514 13.294-123.448 36.666-173.678 68.882 7.15 45.818 46.778 80.878 94.602 80.878 52.886 0 95.758-42.872 95.758-95.758a95.298 95.298 0 0 0-16.682-54.002z" fill="#EAEAEA" p-id="22255"></path><path d="M419.308 65.298C207.692 93.438 68.018 219.926 3.6 408.228c-12.716 37.17 9.448 77.158 47.83 85.526a2162.328 2162.328 0 0 0 445.232 49.516C204.552 464.524 290.04 147.06 419.308 65.298z" opacity=".1" p-id="22256"></path></svg>