<?xml version="1.0" standalone="no"?><!DOCTYPE svg PUBLIC "-//W3C//DTD SVG 1.1//EN" "http://www.w3.org/Graphics/SVG/1.1/DTD/svg11.dtd"><svg t="1622935368922" class="icon" viewBox="0 0 1024 1024" version="1.1" xmlns="http://www.w3.org/2000/svg" p-id="18790" xmlns:xlink="http://www.w3.org/1999/xlink" width="200" height="200"><defs><style type="text/css"></style></defs><path d="M804.818149 412.044823l161.869114-77.936981c19.887919-9.576257 43.774604-1.215018 53.350861 18.672902 9.574258 19.887919 1.215018 43.774604-18.672902 53.348862l-161.869113 77.936981c-19.446276 9.490326-43.744628 1.416854-53.350861-18.672901-9.574258-19.887919-1.215018-43.774604 18.672901-53.348863z m-202.768043 10.315659c15.609378 15.609378 40.914916 15.609378 56.524295 0l261.788319-261.78832c15.60738-15.60738 15.60738-40.914916 0-56.522296-15.609378-15.609378-40.916915-15.609378-56.524294 0l-261.78832 261.78832c-15.60738 15.60738-15.60738 40.914916 0 56.522296z m383.046271 509.561971l0.03797-0.037969a0.339725 0.339725 0 0 1-0.03797 0.037969z m0 0l-0.005995 0.005995 0.005995-0.005995z m-7.615842-211.065334c-103.266499-100.059093-208.509401-151.215728-316.320225-49.785743l-0.229814 0.225817-54.036307 53.632633c-33.768695-19.036607-101.473949-64.044214-172.42258-134.990847-70.958623-70.958623-115.976222-138.681863-134.992846-172.416585l53.634632-54.038305 0.225817-0.229814c101.413997-107.892759 50.29733-212.969794-49.785743-316.320226C276.063697 18.429098 239.129561 1.944428 199.553562 0.515583 159.967571-0.907266 121.95231 12.871592 92.476144 39.328199c-193.915201 210.595714-53.272924 537.619284 149.916779 742.693463 0.125898 0.127897 0.255793 0.253795 0.383689 0.379693 28.273139 28.235169 60.381176 56.178574 95.436831 83.056841 17.515837 13.433138 42.603551 10.119817 56.036689-7.398018 13.43114-17.515837 10.119817-42.605549-7.398018-56.036689-32.447763-24.879882-62.03384-50.629062-87.936895-76.530118l-0.365704-0.361708C162.891207 589.317482 81.477038 422.556324 80.761617 278.968428c-0.373698-74.489768 22.036182-136.665493 64.809595-179.882548l0.305753-0.275777a71.895865 71.895865 0 0 1 100.135031 3.613078c103.478328 107.30923 95.984388 157.970266 50.261359 204.858353l-74.088093 74.643644a39.967682 39.967682 0 0 0-8.143415 44.416085c61.234486 135.948073 251.196884 324.423673 384.033473 384.029476a39.971679 39.971679 0 0 0 44.416085-8.143415l74.631654-74.076103c46.89608-45.733021 97.557116-53.234955 204.87434 50.247371 28.101277 27.100087 29.685996 71.084522 3.591096 100.157013l-0.265785 0.295761c-43.219053 42.767419-105.348816 65.217266-179.874555 64.797605-58.894378-0.293762-127.093233-16.438708-197.220528-46.686249-20.263615-8.740932-43.786594 0.601514-52.529525 20.871123-8.742931 20.267612 0.601514 43.786594 20.871123 52.529525 81.058457 34.963729 157.930299 52.86925 228.481252 53.222964 96.160245 0.613504 181.511231-32.977335 240.043902-91.655887 26.452611-29.470171 40.235466-67.495424 38.806621-107.071423-1.428845-39.577997-17.913515-76.512133-46.420465-104.001905zM559.016902 238.26534c19.446276 9.490326 43.744628 1.416854 53.350861-18.672901l77.936981-161.869114c9.574258-19.887919 1.215018-43.774604-18.672901-53.348862-19.895912-9.578255-43.774604-1.215018-53.350861 18.672901l-77.936981 161.869114c-9.574258 19.887919-1.215018 43.772606 18.672901 53.348862z" p-id="18791"></path></svg>