<?xml version="1.0" standalone="no"?><!DOCTYPE svg PUBLIC "-//W3C//DTD SVG 1.1//EN" "http://www.w3.org/Graphics/SVG/1.1/DTD/svg11.dtd"><svg t="1620832632712" class="icon" viewBox="0 0 1024 1024" version="1.1" xmlns="http://www.w3.org/2000/svg" p-id="36902" xmlns:xlink="http://www.w3.org/1999/xlink" width="200" height="200"><defs><style type="text/css"></style></defs><path d="M425.1136 472.576h-205.312c-59.2896 0-107.52-48.2304-107.52-107.52V226.5088c0-59.2896 48.2304-107.52 107.52-107.52h143.872c59.2896 0 107.52 48.2304 107.52 107.52V426.496c0 25.3952-20.6848 46.08-46.08 46.08z m-205.312-302.3872c-31.0784 0-56.32 25.2416-56.32 56.32V365.056c0 31.0784 25.2416 56.32 56.32 56.32h200.192V226.5088c0-31.0784-25.2416-56.32-56.32-56.32h-143.872zM363.6736 906.0352h-143.872c-59.2896 0-107.52-48.2304-107.52-107.52v-138.496c0-59.2896 48.2304-107.52 107.52-107.52h205.312c25.3952 0 46.08 20.6848 46.08 46.08v199.936c0 59.2896-48.2304 107.52-107.52 107.52z m-143.872-302.336c-31.0784 0-56.32 25.2416-56.32 56.32v138.496c0 31.0784 25.2416 56.32 56.32 56.32h143.872c31.0784 0 56.32-25.2416 56.32-56.32v-194.816h-200.192zM800.0512 906.0352h-143.872c-59.2896 0-107.52-48.2304-107.52-107.52v-199.936c0-25.3952 20.6848-46.08 46.08-46.08h205.312c59.2896 0 107.52 48.2304 107.52 107.52v138.496c0 59.2896-48.2816 107.52-107.52 107.52z m-200.192-302.336v194.816c0 31.0784 25.2416 56.32 56.32 56.32h143.872c31.0784 0 56.32-25.2416 56.32-56.32v-138.496c0-31.0784-25.2416-56.32-56.32-56.32h-200.192z" fill="#1afa29" p-id="36903"></path><path d="M731.0848 295.7824m-158.7712 0a158.7712 158.7712 0 1 0 317.5424 0 158.7712 158.7712 0 1 0-317.5424 0Z" fill="#1afa29" p-id="36904"></path><path d="M731.0848 480.1536c-101.632 0-184.3712-82.688-184.3712-184.3712s82.688-184.3712 184.3712-184.3712 184.3712 82.688 184.3712 184.3712-82.688 184.3712-184.3712 184.3712z m0-317.5424c-73.4208 0-133.1712 59.7504-133.1712 133.1712s59.7504 133.1712 133.1712 133.1712 133.1712-59.7504 133.1712-133.1712-59.7504-133.1712-133.1712-133.1712z" fill="#1afa29" p-id="36905"></path></svg>