<?xml version="1.0" standalone="no"?><!DOCTYPE svg PUBLIC "-//W3C//DTD SVG 1.1//EN" "http://www.w3.org/Graphics/SVG/1.1/DTD/svg11.dtd"><svg t="1620831131612" class="icon" viewBox="0 0 1024 1024" version="1.1" xmlns="http://www.w3.org/2000/svg" p-id="18730" xmlns:xlink="http://www.w3.org/1999/xlink" width="200" height="200"><defs><style type="text/css"></style></defs><path d="M387.5328 849.5104m-65.1264 0a65.1264 65.1264 0 1 0 130.2528 0 65.1264 65.1264 0 1 0-130.2528 0Z" fill="#d4237a" p-id="18731"></path><path d="M783.8208 849.5104m-65.1264 0a65.1264 65.1264 0 1 0 130.2528 0 65.1264 65.1264 0 1 0-130.2528 0Z" fill="#d4237a" p-id="18732"></path><path d="M387.5328 940.2368c-50.0224 0-90.7264-40.704-90.7264-90.7264s40.704-90.7264 90.7264-90.7264 90.7264 40.704 90.7264 90.7264-40.704 90.7264-90.7264 90.7264z m0-130.2528c-21.8112 0-39.5264 17.7152-39.5264 39.5264s17.7152 39.5264 39.5264 39.5264 39.5264-17.7152 39.5264-39.5264-17.7152-39.5264-39.5264-39.5264zM783.8208 940.2368c-50.0224 0-90.7264-40.704-90.7264-90.7264s40.704-90.7264 90.7264-90.7264 90.7264 40.704 90.7264 90.7264-40.704 90.7264-90.7264 90.7264z m0-130.2528c-21.8112 0-39.5264 17.7152-39.5264 39.5264s17.7152 39.5264 39.5264 39.5264 39.5264-17.7152 39.5264-39.5264-17.7664-39.5264-39.5264-39.5264z" fill="#d4237a" p-id="18733"></path><path d="M296.8576 462.5408c-27.4432 0-48.7936 23.8592-45.7216 51.1488l14.336 127.5904c3.9424 35.0208 34.8672 61.5424 71.68 61.5424h493.1072c36.8128 0 67.7376-26.5216 71.68-61.4912l14.4896-127.6416c3.072-27.2896-18.2784-51.2-45.7216-51.2H296.8576z" fill="#d4237a" p-id="18734"></path><path d="M830.2592 728.4736H337.152c-50.0224 0-91.8016-37.5296-97.1776-87.296l-40.8576-380.6208c-0.768-7.2192 1.536-14.4384 6.4-19.8656s11.776-8.4992 19.0464-8.4992h638.2592c27.6992 0 54.2208 11.8272 72.704 32.4608 18.4832 20.6336 27.392 48.2304 24.4224 75.776l-32.6144 300.8512a97.46432 97.46432 0 0 1-97.0752 87.1936zM253.0816 283.4432l37.7856 352.3072c2.56 23.7056 22.4256 41.5744 46.2336 41.5744h493.1072c23.808 0 43.6736-17.8176 46.2336-41.5232l32.6144-300.8512c1.4336-13.312-2.7136-26.112-11.6224-36.096s-21.248-15.4624-34.6112-15.4624H253.0816z" fill="#d4237a" p-id="18735"></path><path d="M224.5632 283.4432c-12.4928 0-23.3984-9.1136-25.2928-21.8112l-13.2096-88.576-0.1536-1.1776c-1.1776-11.6736-10.9056-20.48-22.6304-20.48H77.9264c-14.1312 0-25.6-11.4688-25.6-25.6s11.4688-25.6 25.6-25.6h85.3504c37.888 0 69.376 28.2624 73.5232 65.8432l13.1072 88.0128a25.5744 25.5744 0 0 1-21.5552 29.0816c-1.28 0.2048-2.56 0.3072-3.7888 0.3072zM797.0304 488.1408H368.1792c-14.1312 0-25.6-11.4688-25.6-25.6s11.4688-25.6 25.6-25.6h428.9024c14.1312 0 25.6 11.4688 25.6 25.6s-11.4688 25.6-25.6512 25.6z" fill="#d4237a" p-id="18736"></path></svg>